<?xml version="1.0" encoding="UTF-8"?>
<svg id="_레이어_2" data-name="레이어_2" xmlns="http://www.w3.org/2000/svg" viewBox="0 0 29 20">
  <defs>
    <style>
      .cls-1 {
        fill: #fff;
      }

      .cls-2 {
        fill: #f03;
      }
    </style>
  </defs>
  <g id="yt-ringo2-svg_yt7" focusable="false">
    <g>
      <path class="cls-2" d="M14.48,20s9.08,0,11.34-.6c1.27-.34,2.22-1.32,2.56-2.53.62-2.22.62-6.89.62-6.89,0,0,0-4.64-.62-6.84-.33-1.24-1.29-2.2-2.56-2.53-2.25-.61-11.34-.61-11.34-.61,0,0-9.06,0-11.31.61C1.93.94.95,1.9.6,3.14c-.6,2.2-.6,6.84-.6,6.84,0,0,0,4.67.6,6.89.36,1.21,1.33,2.19,2.58,2.53,2.24.6,11.31.6,11.31.6Z"/>
      <path class="cls-1" d="M19,10l-7.5-4.25v8.5l7.5-4.25Z"/>
    </g>
  </g>
</svg>